<?xml version="1.0" encoding="UTF-8" standalone="no"?>
<!DOCTYPE svg PUBLIC "-//W3C//DTD SVG 1.1//EN" "http://www.w3.org/Graphics/SVG/1.1/DTD/svg11.dtd">
<svg width="100%" height="100%" viewBox="0 0 189 220" version="1.1" xmlns="http://www.w3.org/2000/svg" xmlns:xlink="http://www.w3.org/1999/xlink" xml:space="preserve" xmlns:serif="http://www.serif.com/" style="fill-rule:evenodd;clip-rule:evenodd;stroke-linejoin:round;stroke-miterlimit:2;">
    <g transform="matrix(0.44939,0,0,0.44939,-47.9773,-33.127)">
        <path d="M387.14,260.14L387.14,260.141C387.14,260.141 387.245,259.944 387.367,259.715C388.854,256.925 396.333,242.943 396.616,242.356C398.549,238.343 400.593,234.374 402.662,230.429C408.84,218.651 414.286,206.495 421.381,195.209C443.527,159.981 475.474,125.228 520.632,125.228C523.19,125.228 525.267,123.151 525.267,120.592C525.267,118.034 523.19,115.957 520.632,115.957C472.158,115.957 437.304,152.459 413.531,190.274C406.307,201.766 400.742,214.13 394.452,226.122C392.333,230.16 390.241,234.224 388.263,238.331C387.985,238.907 380.644,252.617 379.185,255.353C379.016,255.671 378.915,255.861 378.897,255.896C378.653,256.373 378.586,256.666 378.572,256.714C377.935,258.899 378.898,260.194 379.198,260.631L383.023,262.647C384.814,262.647 386.369,261.63 387.14,260.14Z" style="fill:white;"/>
        <path d="M515.549,123.593C515.66,124.944 515.919,128.064 515.98,128.609C516.364,132.068 516.242,136.035 514.934,139.301C514.375,140.699 513.097,142.175 511.639,143.789C508.747,146.991 505.099,150.443 502.389,153.886C498.185,159.227 496.408,164.772 498.75,169.651C500.411,173.112 502.823,177.132 504.249,181.276C505.297,184.323 505.884,187.455 504.275,190.331C503.81,191.162 502.848,192.082 501.778,193.116C499.507,195.312 496.724,197.726 494.738,199.994C492.585,202.454 491.337,204.958 491.167,207.018C491.049,208.444 491.553,210.332 492.914,212.175C494.17,213.875 496.47,215.779 497.185,216.804C499.952,220.769 501.159,225.725 498.982,230.202C498.147,231.919 496.771,233.174 495.276,234.317C493.257,235.861 490.999,237.181 488.933,238.627C485.282,241.18 482.223,244.143 480.783,248.325C479.363,252.45 479.528,256.77 479.942,261.147C480.248,264.391 480.732,267.671 480.054,270.874C478.217,279.542 473.852,285.578 467.823,288.081C461.771,290.593 454.311,289.443 446.666,284.585C444.507,283.213 441.639,283.852 440.267,286.011C438.895,288.171 439.534,291.038 441.693,292.411C452.383,299.203 462.915,300.157 471.378,296.644C479.867,293.12 486.538,285.001 489.124,272.796C489.998,268.673 489.567,264.451 489.172,260.274C488.885,257.23 488.562,254.213 489.55,251.343C490.607,248.274 493.515,246.67 496.295,244.85C500.663,241.992 505.023,238.981 507.32,234.256C511.008,226.674 509.476,218.215 504.789,211.498C504.216,210.677 502.026,208.337 500.894,207.144C500.997,206.988 501.106,206.834 501.207,206.707C502.1,205.584 503.292,204.418 504.526,203.251C507.72,200.231 511.081,197.156 512.367,194.857C514.784,190.536 514.979,185.923 513.904,181.315C512.611,175.774 509.316,170.237 507.108,165.639C506.692,164.771 507.061,163.877 507.509,162.939C508.439,160.99 510.073,159.031 511.852,157.069C516.471,151.973 521.89,146.873 523.542,142.747C525.399,138.11 525.741,132.496 525.195,127.586C525.113,126.851 524.799,122.521 524.678,121.67C524.441,119.992 523.622,119.204 523.467,119.036C522.539,118.029 521.511,117.687 520.632,117.577C519.643,117.453 518.662,117.62 517.711,118.178C517.537,118.28 515.405,119.212 515.405,122.44C515.405,122.838 515.455,123.224 515.549,123.593ZM523.856,125.071C524.302,124.503 524.676,123.665 524.676,122.44C524.676,123.417 524.374,124.323 523.856,125.071Z" style="fill:white;"/>
        <path d="M441.235,291.639C441.553,292.284 442.561,294.336 442.748,294.773C443.904,297.468 444.11,300.225 444.472,303.102C445.524,311.452 445.403,322.341 438.485,328.165C432.593,333.124 425.597,334.088 418.651,330.812C416.015,329.568 410.238,325.529 407.49,324.211C404.959,322.997 402.944,323.423 402.164,323.779C400.894,324.357 399.825,325.402 399.203,326.99C398.546,328.666 398.786,331.975 398.713,333.085C398.466,336.846 397.652,341.459 396.025,344.883C394.625,347.828 392.218,350.082 389.987,352.41C385.428,357.166 381.579,359.748 377.704,360.123C375.079,360.378 372.546,359.53 369.883,357.967C366.567,356.021 363.148,353.024 359.371,349.25C357.562,347.442 354.624,347.443 352.815,349.253C351.007,351.062 351.008,354 352.818,355.809C362.293,365.277 370.399,370.147 378.598,369.352C384.188,368.81 390.105,365.687 396.681,358.825C399.594,355.785 402.571,352.709 404.399,348.862C406.289,344.884 407.413,339.679 407.845,335.143C410.401,336.735 413.097,338.444 414.695,339.197C425.116,344.113 435.617,342.699 444.456,335.258C453.736,327.446 455.083,313.144 453.672,301.943C453.199,298.193 452.776,294.632 451.269,291.119C450.911,290.284 449.082,286.603 448.734,286.145C447.285,284.236 445.518,284.263 444.904,284.276C443.675,284.302 442.629,284.747 441.759,285.596C441.204,286.138 440.358,287.116 440.358,288.929C440.358,289.941 440.683,290.877 441.235,291.639ZM448.966,291.319C448.418,292.229 447.566,292.935 446.55,293.296C447.505,292.99 448.355,292.387 448.966,291.319ZM449.47,290.135L449.432,290.27L449.44,290.246L449.47,290.135ZM449.534,289.871L449.486,290.077L449.501,290.024L449.534,289.871ZM449.572,289.658L449.536,289.86L449.553,289.781L449.572,289.658ZM449.601,289.439L449.579,289.615L449.594,289.519L449.601,289.439ZM449.622,289.197L449.611,289.333L449.621,289.235L449.622,289.197Z" style="fill:white;"/>
        <path d="M298.374,330.083C301.349,328.91 309.351,326.327 310.387,325.999C313.459,325.025 316.471,323.982 319.421,322.664C327.84,318.903 334.851,313.25 342.513,308.243C355.915,299.486 373.973,278.305 383.889,265.516C388.151,260.019 396.267,241.967 399.62,236.783C401.01,234.634 400.394,231.762 398.245,230.372C396.097,228.983 393.224,229.599 391.835,231.747C388.562,236.807 380.721,254.47 376.562,259.835C367.156,271.965 350.153,292.175 337.441,300.482C330.192,305.218 323.605,310.64 315.64,314.198C313.011,315.372 310.324,316.292 307.587,317.16C306.238,317.587 294.339,321.559 293.111,322.328C290.755,323.803 290.799,325.887 290.852,326.663C290.921,327.689 291.29,328.633 292.037,329.462C292.478,329.951 293.471,331.016 295.586,331.016C296.632,331.016 297.598,330.669 298.374,330.083ZM298.436,322.726C297.854,322.218 296.961,321.744 295.586,321.744C296.661,321.744 297.65,322.11 298.436,322.726Z" style="fill:white;"/>
        <path d="M354.635,231.843C349.822,236.499 343.314,239.998 337.821,242.604C336,243.468 331.528,243.742 328.611,243.809C328.033,243.523 327.505,243.405 327.108,243.341C324.569,242.931 322.902,244.289 322.09,245.754C321.279,247.22 321.012,249.353 322.707,251.288C322.997,251.618 323.423,252.048 324.061,252.404C328.951,259.141 336.985,263.457 345.212,264.408C335.278,269.96 323.89,273.87 312.892,275.561C307.35,276.413 301.935,276.865 296.32,276.775C294.449,276.744 292.597,276.675 290.732,276.788L287.822,276.019C287.167,275.665 286.418,275.464 285.622,275.464C282.063,275.464 281.286,278.094 281.073,278.832C280.723,280.044 280.58,281.837 282.356,283.512C282.562,283.705 283.345,284.346 284.693,284.778C285.993,285.195 288.785,285.894 289.514,286.016C290.163,286.124 290.615,286.094 290.818,286.077C292.608,285.921 294.379,286.016 296.171,286.045C302.313,286.144 308.238,285.658 314.301,284.725C328.843,282.49 344.003,276.71 356.25,268.521C358.158,267.245 361.331,265.522 363.96,263.571C366.323,261.817 368.253,259.823 369.232,257.865C369.845,256.64 369.792,255.581 369.607,254.766C369.372,253.728 368.837,252.84 367.944,252.141C367.495,251.79 366.166,250.733 363.941,251.298C363.797,251.335 362.946,251.666 362.82,251.729C361.634,252.322 360.327,252.747 359.073,253.165C356.339,254.076 353.417,254.954 350.538,255.243C346.029,255.695 341.257,254.577 337.3,252.181C339.142,251.867 340.771,251.467 341.795,250.981C351.374,246.437 363.097,239.177 368.033,229.228C369.025,227.227 368.516,225.798 368.15,224.995C367.514,223.601 366.38,222.514 364.429,222.265C363.877,222.194 362.942,222.193 361.82,222.606C361.336,222.784 360.088,223.362 359.699,223.544C358.742,223.614 357.811,223.201 357.005,222.681C352.865,220.011 351.145,215.359 349.737,210.843C349.63,210.501 349.07,208.555 348.856,207.808C349.144,206.348 348.726,204.775 347.6,203.64C345.797,201.824 342.86,201.812 341.043,203.614C340.269,204.383 339.45,205.761 339.503,207.765C339.55,209.498 340.656,212.868 340.886,213.605C342.933,220.168 345.963,226.593 351.98,230.473C352.818,231.014 353.709,231.476 354.635,231.843ZM288.66,283.598C287.847,284.307 286.784,284.735 285.622,284.735C287.168,284.735 288.101,284.148 288.66,283.598Z" style="fill:white;"/>
        <path d="M365.353,190.764C365.021,191.287 364.723,191.744 364.482,192.1C362.329,195.281 357.855,200.136 353.028,202.434C350.85,203.471 348.585,204.085 346.623,202.773C344.496,201.352 341.614,201.924 340.193,204.051C338.771,206.179 339.343,209.06 341.471,210.482C346.226,213.661 351.735,213.319 357.013,210.805C363.365,207.782 369.329,201.482 372.161,197.297C373.508,195.306 376.575,190.268 377.812,188.209C377.882,188.091 377.949,187.975 378.011,187.862C378.032,187.836 378.05,187.812 378.064,187.789C378.076,187.768 378.086,187.741 378.092,187.709C379.857,184.385 378.122,182.982 375.822,182.517C374.714,181.17 373.295,180.343 371.774,181.289C370.845,181.384 369.878,181.549 368.909,181.661C368.203,181.743 367.486,181.901 366.839,181.626C365.845,181.204 365.164,180.145 364.637,179.046C364.001,177.718 363.635,176.219 363.788,174.973C363.932,173.79 364.889,173.023 365.844,172.28C367.64,170.883 369.808,169.811 371.517,168.799C378.101,164.899 385.629,158.432 389.267,151.645C392.534,145.55 392.545,137.861 390.229,131.452C389.599,129.707 388.549,127.69 387.902,125.643C387.614,124.734 387.236,123.825 387.655,123.005C388.536,121.283 390.832,120.616 393.1,119.839C396.747,118.589 400.699,117.707 403.367,116.511C418.018,109.946 427.994,94.66 426.383,78.427C426.131,75.881 423.859,74.019 421.312,74.272C418.766,74.525 416.904,76.797 417.157,79.343C418.375,91.623 410.659,103.083 399.575,108.05C396.53,109.415 391.711,110.304 387.765,111.943C383.993,113.51 380.945,115.762 379.4,118.783C378.121,121.283 377.994,124.014 378.612,126.784C379.22,129.506 380.671,132.283 381.509,134.603C382.96,138.619 383.142,143.445 381.095,147.265C378.191,152.683 372.049,157.708 366.792,160.821C364.3,162.297 361.062,163.973 358.699,166.201C356.488,168.286 354.955,170.811 354.584,173.849C354.175,177.2 355.141,181.425 357.203,184.748C358.729,187.205 360.828,189.147 363.216,190.161C363.906,190.454 364.622,190.646 365.353,190.764Z" style="fill:white;"/>
        <path d="M312.511,92.404C319.617,90.383 353.921,86.209 354.687,86.183C361.314,85.956 368.138,86.373 374.7,87.33C394.263,90.184 404.725,87.379 422.844,82.849C425.326,82.228 426.837,79.709 426.217,77.227C425.596,74.745 423.077,73.233 420.595,73.854C403.821,78.047 394.149,80.798 376.039,78.156C368.934,77.119 361.545,76.671 354.37,76.916C353.56,76.944 317.116,81.407 309.835,83.525C308.022,84.052 307.006,84.847 306.612,85.258C305.547,86.367 305.268,87.552 305.268,88.571C305.268,91.13 307.346,93.207 309.904,93.207C310.871,93.207 311.768,92.911 312.511,92.404ZM314.429,89.577L314.428,89.583L314.429,89.577ZM314.481,89.307L314.471,89.366L314.479,89.325L314.481,89.307ZM314.515,89.056L314.503,89.146L314.514,89.072L314.515,89.056ZM314.534,88.813L314.527,88.908L314.534,88.82L314.534,88.813Z" style="fill:white;"/>
        <path d="M365.599,86.368C367.076,86.673 368.673,86.253 369.818,85.108C371.067,83.859 371.309,82.484 371.137,81.208C371.085,80.817 370.553,77.612 366.848,77.167C365.167,76.965 355.739,76.668 349.447,77.216C346.16,77.502 337.128,78.589 333.856,78.942C324.207,79.985 313.987,81.701 304.841,85.005C274.905,95.819 251.059,109.219 233.479,136.924C226.158,148.462 219.499,160.236 215.473,173.392C211.675,185.804 210.142,198.201 209.685,211.107C208.839,234.985 210.242,266.641 221.123,291.552C228.714,308.927 240.847,323.069 259.645,329.646C267.127,332.263 279.369,334.237 289.436,332.032C291.935,331.485 293.52,329.012 292.973,326.512C292.426,324.013 289.952,322.428 287.453,322.975C279.088,324.807 268.924,323.069 262.707,320.894C242.285,313.749 231.242,296.038 225.259,275.76C218.99,254.513 218.279,230.394 218.951,211.435C219.379,199.348 220.782,187.731 224.339,176.105C228.119,163.751 234.433,152.725 241.308,141.892C257.694,116.067 280.087,103.805 307.991,93.725C316.456,90.667 325.922,89.126 334.852,88.16C338.084,87.811 347.005,86.736 350.252,86.453C355.456,85.999 364.364,86.32 365.599,86.368ZM362.074,83.069C362.206,83.568 362.433,84.088 362.817,84.592C362.47,84.125 362.222,83.608 362.074,83.069ZM361.921,82.201L361.922,82.211L361.912,82.072L361.921,82.201ZM363.087,78.737C362.111,79.804 361.84,80.955 361.911,82.051C361.854,80.871 362.247,79.674 363.087,78.737Z" style="fill:white;"/>
        <path d="M281.437,333.178C282.822,332.996 292.33,331.729 295.27,330.994C307.977,327.817 318.913,323.895 330.026,316.862C332.188,315.494 332.833,312.628 331.465,310.466C330.096,308.304 327.23,307.659 325.068,309.027C314.827,315.508 304.73,319.072 293.021,321.999C289.795,322.805 280.756,323.722 278.794,324.265C276.587,324.876 275.779,326.298 275.519,326.813C274.368,329.097 275.288,331.887 277.573,333.039C278.827,333.671 280.233,333.679 281.437,333.178Z" style="fill:white;"/>
        <path d="M354.562,354.514C356.364,353.879 357.656,352.161 357.656,350.143C357.656,348.394 356.879,347.228 355.805,346.415C355.088,345.872 353.586,344.959 351.339,345.75C350.407,346.078 345.575,349.603 343.863,350.691C339.144,353.688 334.162,356.287 329.038,358.52C314.98,364.646 297.972,363.881 283.022,361.75C261.007,358.611 237.791,352.064 221.967,335.251C213.425,326.175 209.343,315.878 204.448,304.709C201.142,297.164 191.729,275.834 190.357,267.665C189.933,265.142 187.541,263.438 185.017,263.862C182.494,264.285 180.789,266.678 181.213,269.201C182.664,277.838 192.46,300.453 195.956,308.43C201.289,320.599 205.909,331.718 215.215,341.606C232.494,359.965 257.674,367.502 281.714,370.929C298.299,373.294 317.145,373.816 332.742,367.02C338.304,364.596 343.711,361.771 348.834,358.517C349.959,357.803 353.545,355.243 354.562,354.514ZM348.393,350.417C348.465,352.22 349.286,353.396 350.619,354.108C349.353,353.34 348.484,351.982 348.393,350.417Z" style="fill:white;"/>
        <path d="M197.312,287.205C188.374,269.189 184.824,241.573 178.848,222.535C175.692,212.48 171.768,201.02 164.003,193.493C157.701,187.383 149.463,184.332 141.32,181.616C135.245,179.59 129.003,178.171 122.583,178.171C120.025,178.171 117.947,180.248 117.947,182.807C117.947,185.365 120.025,187.443 122.583,187.443C128.002,187.443 133.259,188.701 138.386,190.412C145.222,192.692 152.258,195.02 157.55,200.15C164.233,206.629 167.285,216.657 170.002,225.312C176.105,244.758 179.877,272.924 189.006,291.325C190.143,293.617 192.927,294.555 195.219,293.418C197.511,292.281 198.449,289.497 197.312,287.205Z" style="fill:white;"/>
        <path d="M123.357,189.6C123.477,189.6 123.508,189.763 123.605,189.854C123.839,190.074 124.056,190.34 124.268,190.635C125.347,192.14 126.193,194.256 126.92,196.617C129.4,204.669 130.23,215.439 129.892,218.999C126.255,257.292 109.096,291.691 107.056,330.354C105.993,350.517 107.794,365.957 112.828,379.234C120.351,399.079 135.136,414.184 159.211,432.843C169.146,440.542 213.104,458.646 220.785,460.409C223.279,460.981 225.768,459.421 226.341,456.927C226.913,454.433 225.353,451.944 222.859,451.372C215.632,449.714 174.238,432.759 164.891,425.514C142.518,408.175 128.489,394.389 121.497,375.947C116.854,363.7 115.334,349.442 116.315,330.842C118.348,292.311 135.497,258.038 139.122,219.876C139.583,215.019 138.267,198.678 134.089,189.311C131.518,183.546 127.559,180.328 123.357,180.328C120.799,180.328 118.721,182.406 118.721,184.964C118.721,187.523 120.799,189.6 123.357,189.6Z" style="fill:white;"/>
        <path d="M210.513,397.905C210.74,398.621 211.629,401.437 211.709,401.913C212.384,405.897 212.906,409.934 213.289,413.955C214.4,425.614 214.689,437.216 214.689,448.922C214.689,485.036 214.01,520.568 206.617,556.001C206.094,558.506 207.703,560.964 210.208,561.486C212.713,562.009 215.17,560.4 215.693,557.895C223.217,521.834 223.961,485.676 223.961,448.922C223.961,436.922 223.658,425.028 222.52,413.076C222.115,408.832 221.563,404.571 220.851,400.366C220.7,399.473 219.212,394.568 218.918,393.938C217.838,391.62 215.944,391.358 215.485,391.277C213.787,390.978 212.288,391.439 211.085,392.915C210.742,393.336 210.039,394.218 210.039,395.864C210.039,396.596 210.209,397.289 210.513,397.905ZM218.94,397.681C218.335,399.099 217.043,400.155 215.482,400.428C216.801,400.263 218.178,399.604 218.94,397.681ZM219.252,396.599L219.229,396.729L219.236,396.698L219.252,396.599ZM219.259,396.558C219.291,396.356 219.311,396.125 219.311,395.864C219.311,396.1 219.293,396.332 219.259,396.558Z" style="fill:white;"/>
        <path d="M213.392,399.419C213.809,400.099 214.528,401.274 214.598,401.405C215.881,403.794 217.225,406.147 218.484,408.55C222.371,415.968 225.771,423.654 229.907,430.937C236.26,442.128 242.69,455.625 250.907,467.273C259.666,479.689 270.458,489.984 284.925,493.986C298.671,497.789 311.44,496.317 320.418,489.201C326.487,484.392 330.954,476.966 332.7,466.49C333.128,463.922 333.398,461.276 333.504,458.622C336.624,461.823 340.644,465.386 344.917,467.527C349.432,469.79 354.223,470.527 358.791,468.745C365.302,466.206 369.98,458.325 371.785,448.721C373.234,441.006 372.976,432.295 371.09,425.385C369.648,420.103 367.194,415.837 364.079,413.345C362.081,411.747 359.162,412.071 357.563,414.069C355.965,416.067 356.289,418.987 358.287,420.585C360.122,422.053 361.296,424.716 362.145,427.827C363.695,433.506 363.864,440.668 362.672,447.009C362.043,450.36 361.038,453.48 359.592,455.974C358.484,457.885 357.163,459.428 355.422,460.107C352.626,461.198 349.756,459.826 347.088,458.092C343.47,455.742 340.258,452.371 338.006,449.864C337.556,449.364 332.327,442.357 331.258,440.98C328.679,437.655 324.908,439.67 324.833,439.719C324.493,439.946 322.468,441.275 322.791,444.282C322.91,445.394 324.024,450.637 324.069,451.122C324.487,455.671 324.305,460.459 323.554,464.966C322.258,472.739 319.162,478.366 314.659,481.935C307.78,487.387 297.928,487.963 287.397,485.05C275.014,481.625 265.981,472.555 258.483,461.928C250.444,450.532 244.186,437.308 237.97,426.359C233.885,419.166 230.535,411.572 226.696,404.246C225.423,401.816 224.064,399.435 222.767,397.019C222.579,396.668 220.597,393.355 219.88,392.624C218.875,391.599 217.847,391.313 217.262,391.206C215.549,390.891 214.193,391.421 213.121,392.486C212.541,393.062 211.73,394.054 211.73,395.864C211.73,397.291 212.376,398.569 213.392,399.419ZM220.993,396.135C220.946,396.958 220.683,397.725 220.259,398.378C220.634,397.846 220.947,397.127 220.993,396.135Z" style="fill:white;"/>
        <path d="M405.728,406.338C406.024,409.308 406.099,412.294 406.013,415.276C405.868,420.315 405.813,429.117 403.397,435.913C402.235,439.181 400.635,442.068 397.52,442.828C392.716,443.998 388.718,441.806 385.315,438.715C381.08,434.87 377.72,429.583 375.083,425.399C373.038,422.153 370.886,419.032 368.461,416.051C367.727,415.149 366.367,413.06 365.499,412.137C364.576,411.158 363.633,410.692 363.031,410.499C361.187,409.908 359.695,410.374 358.507,411.351C357.794,411.937 356.716,413.039 356.716,415.308C356.716,417.222 357.878,418.866 359.535,419.573C360.125,420.39 360.908,421.46 361.268,421.902C363.457,424.592 365.393,427.413 367.239,430.342C370.929,436.197 375.991,443.775 382.388,448.228C387.395,451.714 393.168,453.431 399.715,451.836C405.841,450.343 409.848,445.445 412.133,439.019C414.884,431.281 415.116,421.281 415.281,415.543L415.302,414.6C423.225,422.602 431.868,428.363 439.754,427.959C445.624,427.659 451.529,424.371 456.599,415.684C458.81,411.896 460.129,407.523 461.292,403.324C462.94,397.376 463.732,391.35 463.961,385.198C464.057,382.641 462.058,380.488 459.502,380.392C456.945,380.297 454.791,382.295 454.696,384.852C454.493,390.28 453.811,395.6 452.357,400.848C451.403,404.29 450.404,407.905 448.592,411.01C446.294,414.946 443.964,417.333 441.367,418.277C438.615,419.278 435.763,418.463 432.858,416.905C429.047,414.862 425.243,411.507 421.538,407.72C420.464,406.623 416.716,400.876 414.323,398.616C412.562,396.952 410.767,396.453 409.681,396.453C406.71,396.453 405.364,398.006 404.723,400.004C404.476,400.772 404.361,401.792 404.6,402.98C404.776,403.858 405.603,406.014 405.728,406.338ZM365.957,415.839L365.95,415.895L365.955,415.865L365.957,415.839ZM365.98,415.572L365.973,415.661L365.98,415.595L365.98,415.572Z" style="fill:white;"/>
        <path d="M457.649,384.064C457.909,384.364 458.257,384.766 458.33,384.845C459.508,386.116 460.747,387.339 462.001,388.534C465.623,391.986 469.98,394.789 474.367,397.155C480.575,400.504 492.461,404.077 500.952,402.394C504.51,401.689 507.547,400.131 509.746,397.644C511.927,395.176 513.376,391.741 513.376,386.97C513.376,376.887 508.452,368.818 501.121,362.534C491.135,353.973 476.55,348.831 465.832,346.154C429.479,337.071 390.984,357.488 360.712,377.291C350.064,384.256 334.673,400.705 324.189,407.831C322.072,409.269 321.522,412.154 322.96,414.271C324.398,416.387 327.284,416.937 329.4,415.499C339.849,408.398 355.176,391.991 365.787,385.05C394.025,366.578 429.675,346.676 463.585,355.149C473.129,357.534 486.194,361.949 495.086,369.573C500.341,374.078 504.104,379.742 504.104,386.97C504.104,388.966 503.712,390.47 502.799,391.503C501.288,393.212 498.762,393.568 496.066,393.58C489.949,393.605 482.825,391.182 478.768,388.994C475.099,387.015 471.427,384.709 468.397,381.822C467.282,380.759 466.179,379.674 465.131,378.544C464.872,378.263 463.433,376.68 462.932,376.347C461.871,375.64 460.903,375.535 460.288,375.533C458.963,375.53 457.92,376.016 457.093,376.787C456.387,377.446 455.606,378.472 455.606,380.221C455.606,381.819 456.417,383.23 457.649,384.064ZM464.871,380.475C464.823,381.373 464.518,382.204 464.027,382.895C464.462,382.318 464.823,381.544 464.871,380.475Z" style="fill:white;"/>
        <path d="M344.813,389.685L344.252,390.192C340.471,393.594 321.253,410.798 319.19,412.565C311.386,419.252 304.73,426.825 295.718,432C270.044,446.743 247.763,456.408 218.793,449.39C216.306,448.787 213.798,450.317 213.196,452.804C212.594,455.291 214.123,457.799 216.61,458.401C248.096,466.028 272.432,456.064 300.335,440.04C309.858,434.572 316.976,426.672 325.223,419.606C327.299,417.827 346.647,400.509 350.453,397.084C350.888,396.693 351.145,396.459 351.187,396.419C354.228,393.529 351.656,390.202 351.576,390.104C350.984,389.386 349.087,387.326 345.925,388.907C345.508,389.116 345.135,389.379 344.813,389.685Z" style="fill:white;"/>
        <path d="M145.093,232.627C145.054,232.964 145.052,233.311 145.091,233.663C145.18,234.461 145.945,236.915 146.93,239.008C147.706,240.658 148.654,242.068 149.31,242.7C151.384,244.698 153.538,244.417 154.989,243.717C155.864,243.295 157.904,242.046 157.904,238.291C157.904,237.142 156.581,232.908 155.21,230.263C154.219,228.351 152.97,227.144 152.326,226.763C150.744,225.826 149.287,225.934 148.097,226.397C147.131,226.773 144.945,227.857 144.945,231.46C144.945,231.863 144.996,232.254 145.093,232.627Z" style="fill:white;"/>
    </g>
</svg>
